<?xml version="1.0" standalone="no"?>
<!DOCTYPE svg PUBLIC "-//W3C//DTD SVG 20010904//EN"
 "http://www.w3.org/TR/2001/REC-SVG-20010904/DTD/svg10.dtd">
<svg version="1.0" xmlns="http://www.w3.org/2000/svg"
 width="1129.000000pt" height="900.000000pt" viewBox="0 0 1129.000000 900.000000"
 preserveAspectRatio="xMidYMid meet">

<g transform="translate(0.000000,900.000000) scale(0.100000,-0.100000)"
fill="#000000" stroke="none">
<path d="M10 4500 l0 -4500 5640 0 5640 0 0 4500 0 4500 -5640 0 -5640 0 0
-4500z m7988 2133 l2 -433 -401 0 c-533 0 -644 -17 -869 -130 -335 -170 -577
-510 -629 -884 -7 -51 -11 -469 -11 -1239 l-1 -1162 -95 -52 c-52 -29 -99 -53
-104 -53 -6 0 -10 449 -10 1234 0 1176 1 1239 19 1348 21 119 73 284 121 377
105 208 282 411 470 538 133 90 366 184 530 214 37 7 217 15 415 18 l350 6 0
220 0 220 -2125 0 -2125 0 0 -220 0 -220 355 -6 c253 -5 377 -11 430 -22 491
-98 896 -461 1049 -939 68 -215 65 -138 68 -1654 3 -1109 1 -1373 -9 -1381
-20 -16 -179 -103 -189 -103 -4 0 -10 638 -12 1418 -4 1554 -1 1474 -64 1667
-112 345 -394 629 -739 744 -154 51 -189 54 -664 60 l-445 6 -3 410 c-1 226 0
420 3 433 l5 22 2338 -2 2337 -3 3 -432z m-3736 -889 c91 -29 174 -68 228
-108 111 -83 205 -204 254 -329 58 -146 56 -86 56 -1736 l0 -1517 -87 -50
c-48 -27 -95 -52 -105 -56 -17 -7 -18 46 -18 1267 0 1103 -2 1275 -14 1275 -8
0 -18 -5 -21 -10 -14 -22 -154 -108 -216 -133 -101 -40 -163 -51 -289 -51
-137 0 -212 18 -325 74 -187 94 -334 275 -386 477 -25 97 -27 260 -5 356 52
226 218 420 434 511 104 44 160 55 289 55 105 1 134 -3 205 -25z m3218 -2
c326 -116 520 -385 520 -717 0 -117 -23 -212 -78 -325 -39 -81 -59 -108 -137
-185 -137 -137 -254 -195 -432 -216 -150 -18 -321 11 -433 74 -56 31 -137 86
-150 102 -7 8 -19 15 -26 15 -12 0 -14 -107 -14 -669 l0 -670 -98 -55 c-54
-31 -101 -56 -105 -56 -4 0 -7 468 -7 1041 0 1170 -3 1113 76 1274 95 195 247
323 464 391 68 21 89 23 220 20 112 -3 158 -8 200 -24z"/>
<path d="M3936 5549 c-82 -19 -189 -80 -252 -143 -102 -103 -154 -227 -154
-371 0 -140 44 -255 136 -355 108 -115 235 -172 389 -172 273 0 488 188 527
461 14 93 -5 198 -52 298 -38 82 -151 198 -230 236 -110 53 -256 71 -364 46z"/>
<path d="M7160 5553 c-101 -17 -237 -98 -304 -179 -178 -217 -165 -516 31
-711 107 -107 221 -154 373 -154 155 0 268 47 376 156 167 168 201 396 91 614
-63 126 -206 238 -347 270 -44 10 -170 12 -220 4z"/>
</g>
</svg>
